<?xml version="1.0" encoding="UTF-8"?>
<svg xmlns="http://www.w3.org/2000/svg" viewBox="-1230.2266825354882 -1130.8095087819445 2319.577897406038 2044.1875726879616" width="2319.577897406038" height="2044.1875726879616">
<rect x="-1230.2266825354882" y="-1130.8095087819445" width="2319.577897406038" height="2044.1875726879616" fill="#ffffff"/>
<g id="edges">
<path d="M -1003.1177590930322 290.21200319704917 Q -1003.2046743974854 232.7984544779008 -1049.4904032533489 -16.596326750993512" fill="none" stroke="#80B2D4" stroke-width="2"/>
<path d="M -948.1445020168743 423.1530656885289 Q -893.6057115037071 477.98770590400784 -693.1994852145989 606.5806263494512" fill="none" stroke="#80B2D4" stroke-width="2"/>
<path d="M -244.96308533236856 688.2381735516523 Q -323.854258119011 609.6525551656497 -331.66961755971954 374.97585521813045" fill="none" stroke="#80B2D4" stroke-width="4"/>
<path d="M -266.34472428568154 740.018275263444 Q -326.7938725842678 740.0333373435171 -575.4444179026951 661.7056932438637" fill="none" stroke="#80B2D4" stroke-width="4"/>
<path d="M -383.28201447247653 354.73262556271624 Q -434.43049241961404 406.3487806464029 -595.1253895279241 592.3685283854925" fill="none" stroke="#80B2D4" stroke-width="2"/>
<path d="M -284.2655710785318 255.71980544192067 Q -233.45599843234794 205.37428665913677 -51.4722551237855 45.28081415671094" fill="none" stroke="#80B2D4" stroke-width="4"/>
<path d="M 466.6723049521012 112.54540356502116 Q 392.40591342363416 38.1086722439741 265.5666521035044 -199.30047846821975" fill="none" stroke="#80B2D4" stroke-width="2"/>
<path d="M 466.53153424219397 223.3137904283801 Q 422.31528388054573 267.40674257008965 269.32233720155017 276.3586826853921" fill="none" stroke="#80B2D4" stroke-width="2"/>
<path d="M 522.0087536872796 89.66503955159861 Q 522.0096338151477 81.78895493364018 497.0098811779243 -40.61336224514663" fill="none" stroke="#80B2D4" stroke-width="2"/>
<path d="M 466.6613648942914 112.55632074152285 Q 365.4094545382744 11.112213358614383 68.52301023717682 2.083805715131736" fill="none" stroke="#80B2D4" stroke-width="2"/>
<path d="M 230.97811998047035 -190.64551107566254 Q 230.95129454135005 -100.7111134314296 198.47589303622186 201.99535303053474" fill="none" stroke="#A28DC7" stroke-width="3"/>
<path d="M 282.9566318598817 -212.21786089912158 Q 305.82756584807055 -189.42373736283704 406.7692834970815 -148.84262055023322" fill="none" stroke="#A28DC7" stroke-width="3"/>
<path d="M 179.0164671969614 -212.24486652126757 Q 151.63289864090353 -184.98161276911102 43.460211599876054 -53.0184419416174" fill="none" stroke="#A28DC7" stroke-width="3"/>
<path d="M 246.09814959904423 224.72769227146836 Q 289.38948396774305 181.30195885626705 443.79281073266304 172.47232064845315" fill="none" stroke="#80B2D4" stroke-width="2"/>
<path d="M 189.85192482838653 201.54213016148202 Q 189.69513403314107 117.40741355274108 223.10218573935362 -191.07191176240576" fill="none" stroke="#A28DC7" stroke-width="3"/>
<path d="M 246.1128687273327 224.7423696844558 Q 309.603746581603 161.08769624240713 439.240384927133 -50.758401082566664" fill="none" stroke="#A28DC7" stroke-width="3"/>
<path d="M 133.71457641095748 224.9150100567597 Q 105.42463469545963 196.7258094531876 32.3815370398237 60.42500506546261" fill="none" stroke="#A28DC7" stroke-width="3"/>
<path d="M 424.3903463165968 -62.46568843890457 Q 360.6302530152898 1.209546177791296 231.37108024183135 213.16189326672463" fill="none" stroke="#A28DC7" stroke-width="3"/>
<path d="M 400.9952903960471 -118.83352168602343 Q 336.3799167622973 -118.6990663706706 64.64781031889986 -22.81240450268673" fill="none" stroke="#A28DC7" stroke-width="3"/>
<path d="M 48.4622370219686 48.4887281855195 Q 156.60921550244345 156.6948236088041 443.70250645517416 165.5774786528074" fill="none" stroke="#80B2D4" stroke-width="2"/>
<path d="M 48.50717336552376 -48.443774732257175 Q 79.3274321260167 -79.22375156851567 184.4587886277447 -207.30081862946295" fill="none" stroke="#A28DC7" stroke-width="3"/>
<path d="M 48.45087084594523 48.500085489534875 Q 84.27953556325163 84.3651436696123 152.37308251290537 211.0157868805351" fill="none" stroke="#A28DC7" stroke-width="3"/>
<path d="M 68.55467272734408 0.04500521526884956 Q 144.16798502702463 0.09464433193084971 405.5711336239187 -92.33040324524711" fill="none" stroke="#A28DC7" stroke-width="3"/>
<path d="M 855.5837902778264 -220.6269486229764 Q 781.8696194535105 -146.97018666229133 560.6613908057136 -126.40567949220221" fill="none" stroke="#80B2D4" stroke-width="2"/>
</g>
<g id="arrowheads">
<polygon points="-1049.4904032533489,-16.596326750993512 -1041.9913537316884,-5.783174746527558 -1052.610024717378,-3.8124321205936047" fill="#80B2D4"/>
<polygon points="-1003.1177590930322,290.21200319704917 -1008.5359190435285,278.22019170958663 -997.7359314188571,278.20384218524214" fill="#80B2D4"/>
<polygon points="-693.1994852145989,606.5806263494512 -706.2153613738465,604.6449177435059 -700.3828727336418,595.5552490882751" fill="#80B2D4"/>
<polygon points="-948.1445020168743,423.1530656885289 -935.853512734997,427.85323403368176 -943.5108949967831,435.4693023695675" fill="#80B2D4"/>
<polygon points="-331.66961755971954,374.97585521813045 -323.94105948378973,390.72734372134755 -338.3330808340159,391.2066363820826" fill="#80B2D4"/>
<polygon points="-575.4444179026951,661.7056932438637 -558.0204037241573,659.6456617134952 -562.346971179439,673.3803191193026" fill="#80B2D4"/>
<polygon points="-595.1253895279241,592.3685283854925 -591.3671848221276,579.7575848288299 -583.194397882295,586.8177231869714" fill="#80B2D4"/>
<polygon points="-51.4722551237855,45.28081415671094 -58.72973434506048,61.254824152725156 -68.24102741100344,50.443010973903334" fill="#80B2D4"/>
<polygon points="-284.2655710785318,255.71980544192067 -277.96783950713177,239.3436466415612 -267.8323204768561,249.57258861944533" fill="#80B2D4"/>
<polygon points="265.5666521035044,-199.30047846821975 275.98424506509656,-191.26096623882512 266.4585185321236,-186.17170951323004" fill="#80B2D4"/>
<polygon points="466.6723049521012,112.54540356502116 454.3740009790857,107.86440800987363 462.0194971193801,100.23640769729217" fill="#80B2D4"/>
<polygon points="269.32233720155017,276.3586826853921 280.986421897793,270.26695647692907 281.6172736945816,281.0485160121025" fill="#80B2D4"/>
<polygon points="497.0098811779243,-40.61336224514663 504.70199191388485,-29.936685214079336 494.1204416635526,-27.775483164364356" fill="#80B2D4"/>
<polygon points="522.0087536872796,89.66503955159861 516.610094683525,77.66443619338457 527.4100946160931,77.66564305966102" fill="#80B2D4"/>
<polygon points="68.52301023717682,2.083805715131736 80.68160513570703,-2.948944039568467 80.35332558920013,7.846065573180622" fill="#80B2D4"/>
<polygon points="198.47589303622186,201.99535303053474 193.70523764431948,187.40320284176158 206.23334625439543,188.74726186358362" fill="#A28DC7"/>
<polygon points="406.7692834970815,-148.84262055023322 391.4297379922966,-148.2194482573375 396.12966386824814,-159.9100725674657" fill="#A28DC7"/>
<polygon points="282.9566318598817,-212.21786089912158 297.32003743947104,-206.79729080399113 288.42549079053043,-197.87277177438403" fill="#A28DC7"/>
<polygon points="43.460211599876054,-53.0184419416174 47.4632460848057,-67.8395658838987 57.207763824229126,-59.85180186472148" fill="#A28DC7"/>
<polygon points="443.79281073266304,172.47232064845315 432.1206821100943,178.54861996779317 431.50408560675487,167.76623578097855" fill="#80B2D4"/>
<polygon points="223.10218573935362,-191.07191176240576 227.85823469891884,-176.47499433802403 215.33147751757375,-177.83159100602063" fill="#A28DC7"/>
<polygon points="439.240384927133,-50.758401082566664 437.30659623322424,-35.52848114557058 426.55920037271414,-42.10521910731802" fill="#A28DC7"/>
<polygon points="32.3815370398237,60.42500506546261 44.54728501249072,69.7890093513196 33.44147895327954,75.7405698000749" fill="#A28DC7"/>
<polygon points="231.37108024183135,213.16189326672463 233.281712727411,197.92905100058638 244.03909475058327,204.48944214803558" fill="#A28DC7"/>
<polygon points="64.64781031889986,-22.81240450268673 75.7535599599827,-33.412042463937496 79.94636292088676,-21.530106454556105" fill="#A28DC7"/>
<polygon points="443.70250645517416,165.5774786528074 431.5412501474978,170.6037939054555 431.8752418957104,159.80895951524244" fill="#80B2D4"/>
<polygon points="184.4587886277447,-207.30081862946295 180.44578127401982,-192.48239185807626 170.7066410528228,-200.47671157596733" fill="#A28DC7"/>
<polygon points="152.37308251290537,211.0157868805351 140.19460718848725,201.66834130580514 151.29230658445093,195.70167824201246" fill="#A28DC7"/>
<polygon points="405.5711336239187,-92.33040324524711 394.4719901904949,-81.72384795880814 390.2717850617977,-93.60316935680328" fill="#A28DC7"/>
<polygon points="560.6613908057136,-126.40567949220221 572.1100172921406,-132.8932793237488 573.1097230063933,-122.13964791455078" fill="#80B2D4"/>
</g>
<g id="edge-labels">
<g transform="rotate(82.563 -1017.8215045569862 187.6016916337912)"><rect x="-1029.371504556986" y="178.5016916337912" width="23.1" height="18.2" fill="#ffffff"/><text x="-1017.8215045569862" y="192.5016916337912" font-family="Nunito,sans-serif" font-size="14" text-anchor="middle" fill="#343434">32k</text></g>
<g transform="rotate(36.895 -857.0727238724477 491.5470966942544)"><rect x="-872.4727238724477" y="482.44709669425436" width="30.800000000000004" height="18.2" fill="#ffffff"/><text x="-857.0727238724477" y="496.44709669425436" font-family="Nunito,sans-serif" font-size="14" text-anchor="middle" fill="#343434">164k</text></g>
<g transform="rotate(72.041 -293.67360850908386 566.1922944396938)"><rect x="-328.3236085090839" y="557.0922944396938" width="69.30000000000001" height="18.2" fill="#ffffff"/><text x="-293.67360850908386" y="571.0922944396938" font-family="Nunito,sans-serif" font-size="14" text-anchor="middle" fill="#343434">164k, 41k</text></g>
<g transform="rotate(12.420 -371.23400479864256 715.481060997331)"><rect x="-405.88400479864254" y="706.381060997331" width="69.30000000000001" height="18.2" fill="#ffffff"/><text x="-371.23400479864256" y="720.381060997331" font-family="Nunito,sans-serif" font-size="14" text-anchor="middle" fill="#343434">164k, 41k</text></g>
<g transform="rotate(-47.947 -460.0620561953223 439.9881308338842)"><rect x="-471.61205619532234" y="430.8881308338842" width="23.1" height="18.2" fill="#ffffff"/><text x="-460.0620561953223" y="444.8881308338842" font-family="Nunito,sans-serif" font-size="14" text-anchor="middle" fill="#343434">32k</text></g>
<g transform="rotate(-42.402 -200.10385062407394 179.06848693354078)"><rect x="-230.90385062407395" y="169.9684869335408" width="61.60000000000001" height="18.2" fill="#ffffff"/><text x="-200.10385062407394" y="183.9684869335408" font-family="Nunito,sans-serif" font-size="14" text-anchor="middle" fill="#343434">32k, 10k</text></g>
<g transform="rotate(56.035 384.4431888009415 -5.092567886530425)"><rect x="372.8931888009415" y="-14.192567886530425" width="23.1" height="18.2" fill="#ffffff"/><text x="384.4431888009415" y="-0.19256788653042545" font-family="Nunito,sans-serif" font-size="14" text-anchor="middle" fill="#343434">41k</text></g>
<g transform="rotate(-18.797 389.0838339023451 245.880546641634)"><rect x="377.53383390234507" y="236.780546641634" width="23.1" height="18.2" fill="#ffffff"/><text x="389.0838339023451" y="250.780546641634" font-family="Nunito,sans-serif" font-size="14" text-anchor="middle" fill="#343434">41k</text></g>
<g transform="rotate(81.870 511.6419417522987 53.147809033024345)"><rect x="500.0919417522987" y="44.04780903302434" width="23.1" height="18.2" fill="#ffffff"/><text x="511.6419417522987" y="58.04780903302434" font-family="Nunito,sans-serif" font-size="14" text-anchor="middle" fill="#343434">41k</text></g>
<g transform="rotate(17.840 313.20939477931665 47.507865921161816)"><rect x="301.65939477931664" y="38.407865921161815" width="23.1" height="18.2" fill="#ffffff"/><text x="313.20939477931665" y="52.407865921161815" font-family="Nunito,sans-serif" font-size="14" text-anchor="middle" fill="#343434">41k</text></g>
<g transform="rotate(-85.698 220.6372544142978 -46.18148168538693)"><rect x="182.1372544142978" y="-55.28148168538693" width="77" height="18.2" fill="#ffffff"/><text x="220.6372544142978" y="-41.28148168538693" font-family="Nunito,sans-serif" font-size="14" text-anchor="middle" fill="#343434">41k, 400um</text></g>
<g transform="rotate(30.114 330.7863229503107 -190.46163744147555)"><rect x="292.2863229503107" y="-199.56163744147554" width="77" height="18.2" fill="#ffffff"/><text x="330.7863229503107" y="-185.56163744147554" font-family="Nunito,sans-serif" font-size="14" text-anchor="middle" fill="#343434">41k, 250um</text></g>
<g transform="rotate(-48.814 133.55653201218183 -158.54214746896218)"><rect x="95.05653201218183" y="-167.64214746896218" width="77" height="18.2" fill="#ffffff"/><text x="133.55653201218183" y="-153.64214746896218" font-family="Nunito,sans-serif" font-size="14" text-anchor="middle" fill="#343434">41k, 250um</text></g>
<g transform="rotate(-18.797 322.6209339459437 202.82815478472267)"><rect x="307.2209339459437" y="193.72815478472268" width="30.800000000000004" height="18.2" fill="#ffffff"/><text x="322.6209339459437" y="207.72815478472268" font-family="Nunito,sans-serif" font-size="14" text-anchor="middle" fill="#343434">101k</text></g>
<g transform="rotate(-85.698 200.0091741601933 62.87778180669841)"><rect x="157.65917416019332" y="53.77778180669841" width="84.7" height="18.2" fill="#ffffff"/><text x="200.0091741601933" y="67.77778180669841" font-family="Nunito,sans-serif" font-size="14" text-anchor="middle" fill="#343434">101k, 250um</text></g>
<g transform="rotate(-53.964 322.3603731900247 121.11815872625317)"><rect x="280.01037319002467" y="112.01815872625318" width="84.7" height="18.2" fill="#ffffff"/><text x="322.3603731900247" y="126.01815872625318" font-family="Nunito,sans-serif" font-size="14" text-anchor="middle" fill="#343434">101k, 250um</text></g>
<g transform="rotate(55.935 100.13835991240762 168.63564300729377)"><rect x="57.78835991240762" y="159.53564300729377" width="84.7" height="18.2" fill="#ffffff"/><text x="100.13835991240762" y="173.53564300729377" font-family="Nunito,sans-serif" font-size="14" text-anchor="middle" fill="#343434">101k, 500um</text></g>
<g transform="rotate(-53.964 347.8736264068681 41.17908369394526)"><rect x="309.3736264068681" y="32.07908369394526" width="77" height="18.2" fill="#ffffff"/><text x="347.8736264068681" y="46.07908369394526" font-family="Nunito,sans-serif" font-size="14" text-anchor="middle" fill="#343434">41k, 400um</text></g>
<g transform="rotate(-13.896 288.32693382847907 -89.00063869502023)"><rect x="249.82693382847907" y="-98.10063869502022" width="77" height="18.2" fill="#ffffff"/><text x="288.32693382847907" y="-84.10063869502022" font-family="Nunito,sans-serif" font-size="14" text-anchor="middle" fill="#343434">41k, 250um</text></g>
<g transform="rotate(17.840 208.80927526140118 120.29917104625667)"><rect x="197.25927526140117" y="111.19917104625668" width="23.1" height="18.2" fill="#ffffff"/><text x="208.80927526140118" y="125.19917104625668" font-family="Nunito,sans-serif" font-size="14" text-anchor="middle" fill="#343434">32k</text></g>
<g transform="rotate(-48.814 97.4037987547384 -105.6632168686645)"><rect x="58.9037987547384" y="-114.7632168686645" width="77" height="18.2" fill="#ffffff"/><text x="97.4037987547384" y="-100.7632168686645" font-family="Nunito,sans-serif" font-size="14" text-anchor="middle" fill="#343434">32k, 250um</text></g>
<g transform="rotate(55.935 89.56581034630364 112.45531011550611)"><rect x="51.065810346303635" y="103.35531011550611" width="77" height="18.2" fill="#ffffff"/><text x="89.56581034630364" y="117.35531011550611" font-family="Nunito,sans-serif" font-size="14" text-anchor="middle" fill="#343434">32k, 400um</text></g>
<g transform="rotate(-13.896 192.22096796084278 -29.60378334371951)"><rect x="153.72096796084278" y="-38.70378334371951" width="77" height="18.2" fill="#ffffff"/><text x="192.22096796084278" y="-24.70378334371951" font-family="Nunito,sans-serif" font-size="14" text-anchor="middle" fill="#343434">32k, 250um</text></g>
<g transform="rotate(-20.058 738.8223688978306 -172.187844506146)"><rect x="727.2723688978307" y="-181.287844506146" width="23.1" height="18.2" fill="#ffffff"/><text x="738.8223688978306" y="-167.287844506146" font-family="Nunito,sans-serif" font-size="14" text-anchor="middle" fill="#343434">38k</text></g>
</g>
<g id="nodes">
<circle cx="-1003" cy="368" r="77.7880859375" fill="#C8D0D5" stroke="#8c9295" stroke-width="2"/>
<text x="-1003" y="375" font-family="Nunito,sans-serif" font-size="20" text-anchor="middle" fill="#343434">NCBR</text>
<circle cx="-1062" cy="-84" r="68.5546875" fill="#C8D0D5" stroke="#8c9295" stroke-width="2"/>
<text x="-1062" y="-77" font-family="Nunito,sans-serif" font-size="20" text-anchor="middle" fill="#343434">Yerkes29</text>
<circle cx="-638" cy="642" r="65.5859375" fill="#95B46A" stroke="#687e4a" stroke-width="2"/>
<text x="-638" y="649" font-family="Nunito,sans-serif" font-size="20" text-anchor="middle" fill="#343434">fsaverage</text>
<circle cx="-193" cy="740" r="73.3447265625" fill="#95B46A" stroke="#687e4a" stroke-width="2"/>
<text x="-193" y="747" font-family="Nunito,sans-serif" font-size="20" text-anchor="middle" fill="#343434">CIVET</text>
<circle cx="-334" cy="305" r="70.0146484375" fill="#95B46A" stroke="#687e4a" stroke-width="2"/>
<text x="-334" y="312" font-family="Nunito,sans-serif" font-size="20" text-anchor="middle" fill="#343434">fsLR</text>
<circle cx="0" cy="0" r="68.5546875" fill="#DEAC52" stroke="#9b7839" stroke-width="2"/>
<text x="0" y="7" font-family="Nunito,sans-serif" font-size="20" text-anchor="middle" fill="#343434">Yerkes19</text>
<circle cx="522" cy="168" r="78.3349609375" fill="#DEAC52" stroke="#9b7839" stroke-width="2"/>
<text x="522" y="175" font-family="Nunito,sans-serif" font-size="20" text-anchor="middle" fill="#343434">CIVETNMT</text>
<circle cx="231" cy="-264" r="73.35449218750001" fill="#DEAC52" stroke="#9b7839" stroke-width="2"/>
<text x="231" y="-257" font-family="Nunito,sans-serif" font-size="20" text-anchor="middle" fill="#343434">D99</text>
<circle cx="190" cy="281" r="79.4580078125" fill="#DEAC52" stroke="#9b7839" stroke-width="2"/>
<text x="190" y="288" font-family="Nunito,sans-serif" font-size="20" text-anchor="middle" fill="#343434">MEBRAINS</text>
<circle cx="481" cy="-119" r="80.0048828125" fill="#DEAC52" stroke="#9b7839" stroke-width="2"/>
<text x="481" y="-112" font-family="Nunito,sans-serif" font-size="20" text-anchor="middle" fill="#343434">NMT2Sym</text>
<circle cx="911" cy="-276" r="78.33984375" fill="#e98c8cff" stroke="#a36262" stroke-width="2"/>
<text x="911" y="-269" font-family="Nunito,sans-serif" font-size="20" text-anchor="middle" fill="#343434">MBM</text>
<circle cx="-491" cy="-662" r="72.2509765625" fill="#C8D0D5" stroke="#8c9295" stroke-width="2"/>
<text x="-491" y="-655" font-family="Nunito,sans-serif" font-size="20" text-anchor="middle" fill="#343434">JunaChimp</text>
<circle cx="377" cy="-955" r="75.5712890625" fill="#e98c8cff" stroke="#a36262" stroke-width="2"/>
<text x="377" y="-948" font-family="Nunito,sans-serif" font-size="20" text-anchor="middle" fill="#343434">NenckiMonash</text>
</g>
</svg>
